Coordinates
version=1
nRows=26
nColumns=18
inDegrees=yes

Units are S.I. units (second, meters, Newtons, ...)
Angles are in degrees.

endheader
time	ground_thorax_rot_x	ground_thorax_rot_y	ground_thorax_rot_z	ground_thorax_tx	ground_thorax_ty	ground_thorax_tz	clav_prot	clav_elev	scapula_abduction	scapula_elevation	scapula_upward_rot	scapula_winging	plane_elv	shoulder_elv	axial_rot	elbow_flexion	pro_sup
      0.00000000	      1.42465401	     -2.99303821	     -9.29461798	     -0.00423131	      0.00403036	     -0.00078352	    -21.14303971	     -5.98652788	    -12.32221554	     -3.91236591	      8.08783767	      7.07119454	    -29.38415439	     18.64673835	     39.68188796	      0.00000000	     34.32000000
      0.01000000	      1.43354737	     -3.03472530	     -9.30067260	     -0.00423131	      0.00403036	     -0.00078352	    -21.15547798	     -5.96353992	    -12.34442571	     -3.89751695	      8.09641093	      7.06286721	    -29.37177387	     18.64199243	     39.71297243	      0.00000000	     34.32000000
      0.02000000	      1.70697875	     -3.02877402	     -9.23026685	     -0.00423131	      0.00403036	     -0.00078352	    -21.29030492	     -5.52715479	    -12.37451303	     -3.72718149	      8.67274431	      6.79042569	    -31.03512272	     17.43276490	     51.03452437	      0.00000000	     34.32000000
      0.03000000	      1.65963332	     -3.12472265	     -9.25363592	     -0.00423131	      0.00403036	     -0.00078352	    -21.20342409	     -5.65241435	    -12.37292670	     -3.72528474	      8.33594448	      6.90636933	    -30.00397810	     17.90145713	     48.04569987	      0.00000000	     34.32000000
      0.04000000	      1.49601948	     -3.15692563	     -9.37039434	     -0.00423131	      0.00403036	     -0.00078352	    -21.20225964	     -5.90746613	    -12.32524939	     -3.91680431	      8.31121458	      6.99582729	    -30.72329853	     17.88147424	     47.64601015	      0.00000000	     34.32000000
      0.05000000	      1.51618765	     -3.20892995	     -9.41726593	     -0.00423131	      0.00403036	     -0.00078352	    -21.19407910	     -5.89034348	    -12.32655946	     -3.89685135	      8.28932347	      6.99498534	    -30.71804899	     17.89630444	     47.65282103	      0.00000000	     34.32000000
      0.06000000	      1.72698281	     -3.61750326	     -9.34888797	     -0.00423131	      0.00403036	     -0.00078352	    -20.77615747	     -5.65523385	    -11.69065324	     -3.67019102	      8.22077994	      6.89619681	    -29.90505108	     18.27265613	     46.02140493	      0.00000000	     34.32000000
      0.07000000	      1.76112917	     -3.63178382	     -9.42239018	     -0.00423131	      0.00403036	     -0.00078352	    -20.76054724	     -5.65433775	    -11.68009028	     -3.65988865	      8.18969398	      6.90147875	    -29.91374330	     18.29288698	     46.02976640	      0.00000000	     34.32000000
      0.08000000	      1.73619250	     -3.86997857	     -9.37055163	     -0.00423131	      0.00403036	     -0.00078352	    -20.41918853	     -5.67488995	    -11.11047874	     -3.64067952	      8.13459085	      6.88547853	    -30.71392182	     18.25629352	     48.61375897	      0.00000000	     34.32000000
      0.09000000	      1.63914809	     -4.01338345	     -9.55038235	     -0.00423131	      0.00403036	     -0.00078352	    -20.18472463	     -6.04555955	    -10.79856800	     -3.81947040	      7.79158184	      7.06247386	    -29.60617820	     18.98503491	     43.51087646	      0.00000000	     34.32000000
      0.10000000	      1.71452596	     -4.00527938	     -9.54419938	     -0.00423131	      0.00403036	     -0.00078352	    -20.17716980	     -6.05591109	    -10.79250305	     -3.82191316	      7.77340338	      7.06960734	    -29.61462276	     19.01509011	     43.52388305	      0.00000000	     34.32000000
      0.11000000	      1.91113223	     -4.27987191	     -9.46302993	     -0.00423131	      0.00403036	     -0.00078352	    -19.89167276	     -5.91921989	    -10.29102697	     -3.71786913	      7.83994812	      6.97310168	    -29.23610743	     19.36027840	     41.92717714	      0.00000000	     34.32000000
      0.12000000	      2.13142885	     -4.59399645	     -9.43327681	     -0.00423131	      0.00403036	     -0.00078352	    -19.59670481	     -5.82169784	     -9.79800820	     -3.62565395	      7.84128543	      6.90240060	    -28.31861643	     19.80842578	     40.02089124	      0.00000000	     34.32000000
      0.13000000	      2.15981689	     -4.87482618	     -9.37779673	     -0.00423131	      0.00403036	     -0.00078352	    -19.31311584	     -5.82197358	     -9.28490892	     -3.61990040	      7.87633047	      6.85375581	    -28.36490124	     19.91513734	     39.43437950	      0.00000000	     34.32000000
      0.14000000	      1.70471744	     -4.60591900	     -9.54598748	     -0.00423131	      0.00403036	     -0.00078352	    -19.51224282	     -6.50649154	     -9.72497379	     -4.03331795	      7.41094840	      7.22073026	    -28.70238373	     19.98139496	     40.15530705	      0.00000000	     34.32000000
      0.15000000	      1.70889951	     -4.55760917	     -9.50788667	     -0.00423131	      0.00403036	     -0.00078352	    -19.44263189	     -6.67662605	     -9.68419676	     -4.09837991	      7.18493488	      7.32252427	    -28.32622302	     20.31298737	     39.82890715	      0.00000000	     34.32000000
      0.16000000	      1.74216036	     -4.48122428	     -9.45006601	     -0.00423131	      0.00403036	     -0.00078352	    -19.43368579	     -6.71479655	     -9.64922651	     -4.13397110	      7.20723096	      7.32943578	    -28.28998042	     20.31832749	     39.84333279	      0.00000000	     34.32000000
      0.17000000	      1.70646960	     -4.63577611	     -9.63556229	     -0.00423131	      0.00403036	     -0.00078352	    -19.24809038	     -7.09412926	     -9.46263518	     -4.30121063	      6.78759141	      7.53368369	    -26.48793599	     20.93455324	     37.75645609	      0.00000000	     34.32000000
      0.18000000	      1.84150923	     -4.82669149	     -9.63017335	     -0.00423131	      0.00403036	     -0.00078352	    -19.05392190	     -6.98327225	     -9.06306051	     -4.25032235	      6.95239101	      7.42578611	    -25.94062322	     20.75309209	     40.46984596	      0.00000000	     34.32000000
      0.19000000	      1.75822014	     -4.93698172	     -9.72474332	     -0.00423131	      0.00403036	     -0.00078352	    -18.95808727	     -7.18576727	     -8.92611412	     -4.36387444	      6.81314166	      7.51473686	    -24.97726871	     21.01172137	     38.48011417	      0.00000000	     34.32000000
      0.20000000	      1.84314720	     -4.91432777	     -9.70808774	     -0.00423131	      0.00403036	     -0.00078352	    -18.94458833	     -7.15755391	     -9.02715587	     -4.27465109	      6.57946725	      7.55749691	    -23.50923467	     21.50628715	     35.46801647	      0.00000000	     34.32000000
      0.21000000	      1.81994147	     -5.01849766	     -9.74202027	     -0.00423131	      0.00403036	     -0.00078352	    -18.81762130	     -7.24718038	     -8.70489922	     -4.38426123	      6.74322312	      7.53022195	    -23.73145610	     21.20520323	     36.64128614	      0.00000000	     34.32000000
      0.22000000	      1.84684909	     -4.92926362	     -9.62614372	     -0.00423131	      0.00403036	     -0.00078352	    -18.81498289	     -7.30747066	     -8.81405821	     -4.36087523	      6.49522772	      7.60897588	    -23.15243082	     21.35381616	     36.34802366	      0.00000000	     34.32000000
      0.23000000	      1.84472145	     -4.84638194	     -9.56938285	     -0.00423131	      0.00403036	     -0.00078352	    -18.80610093	     -7.33417318	     -8.78411853	     -4.38646805	      6.51350608	      7.61317453	    -23.11216017	     21.32999630	     36.36029599	      0.00000000	     34.32000000
      0.24000000	      1.77083809	     -4.87209494	     -9.71783852	     -0.00423131	      0.00403036	     -0.00078352	    -18.76566375	     -7.48255782	     -8.79335713	     -4.43908034	      6.29782772	      7.71000634	    -21.62241987	     21.53177484	     35.22748510	      0.00000000	     34.32000000
      0.25000000	      1.86479965	     -4.76125130	     -9.69402772	     -0.00423131	      0.00403036	     -0.00078352	    -18.79697374	     -7.39478911	     -8.84829438	     -4.38143774	      6.33091901	      7.67571097	    -20.64492733	     21.61969148	     34.43479094	      0.00000000	     34.32000000
